<svg xmlns="http://www.w3.org/2000/svg" width="256" height="256" viewBox="0 0 100 100"><rect width="100" height="100" rx="20" fill="#4a4a4a"></rect><path fill="#fff" d="M27.50 54.92L21.95 54.92L21.95 66.75Q21.62 66.86 21.07 67.00Q20.52 67.13 19.86 67.13L19.86 67.13Q17.44 67.13 17.44 65.10L17.44 65.10L17.44 35.84Q17.44 34.96 17.88 34.49Q18.32 34.02 19.25 33.75L19.25 33.75Q20.85 33.25 23.13 33.03Q25.41 32.81 27.56 32.81L27.56 32.81Q34.55 32.81 37.76 35.76Q40.98 38.70 40.98 43.70L40.98 43.70Q40.98 48.82 37.68 51.87Q34.38 54.92 27.50 54.92L27.50 54.92ZM21.89 51.18L27.23 51.18Q31.63 51.18 34.05 49.37Q36.47 47.55 36.47 43.76L36.47 43.76Q36.47 40.02 34.13 38.28Q31.79 36.55 27.45 36.55L27.45 36.55Q25.96 36.55 24.51 36.69Q23.05 36.83 21.89 37.05L21.89 37.05L21.89 51.18ZM67.66 58.17L67.66 58.17Q67.27 58.44 66.64 58.66Q66.00 58.88 65.23 58.88L65.23 58.88Q64.35 58.88 63.67 58.61Q62.98 58.33 62.70 57.73L62.70 57.73Q59.73 51.57 57.59 46.45Q55.44 41.34 54.13 37.98L54.13 37.98L53.91 37.98Q53.74 42.11 53.55 45.66Q53.35 49.20 53.13 52.59Q52.91 55.97 52.69 59.43Q52.47 62.90 52.25 66.86L52.25 66.86Q51.92 66.97 51.40 67.08Q50.88 67.19 50.27 67.19L50.27 67.19Q49.06 67.19 48.57 66.69Q48.07 66.20 48.07 65.26L48.07 65.26Q48.07 64.71 48.16 62.90Q48.24 61.08 48.40 58.50Q48.57 55.91 48.76 52.78Q48.95 49.64 49.20 46.40Q49.45 43.15 49.70 40.02Q49.94 36.88 50.16 34.30L50.16 34.30Q50.60 33.91 51.43 33.58Q52.25 33.25 53.30 33.25L53.30 33.25Q55.83 33.25 56.82 35.29L56.82 35.29Q57.86 37.43 58.94 39.83Q60.01 42.22 61.08 44.69Q62.16 47.17 63.17 49.59Q64.19 52.01 65.13 54.21L65.13 54.21L65.34 54.21Q66.55 51.29 67.77 48.46Q68.97 45.63 70.13 42.99Q71.28 40.35 72.33 38.04Q73.38 35.73 74.20 33.80L74.20 33.80Q74.69 33.53 75.47 33.39Q76.23 33.25 76.89 33.25L76.89 33.25Q79.48 33.25 79.86 35.01L79.86 35.01Q80.08 36.00 80.36 38.28Q80.63 40.57 80.91 43.54Q81.19 46.51 81.43 49.92Q81.68 53.33 81.90 56.49Q82.12 59.65 82.28 62.32Q82.45 64.99 82.56 66.53L82.56 66.53Q81.57 67.19 80.25 67.19L80.25 67.19Q79.42 67.19 78.79 66.78Q78.16 66.36 78.05 65.26L78.05 65.26Q77.78 61.25 77.56 57.29Q77.33 53.33 77.14 49.75Q76.95 46.18 76.78 43.18Q76.62 40.18 76.51 38.09L76.51 38.09L76.29 38.09Q75.69 39.63 74.89 41.56Q74.09 43.48 73.02 45.90Q71.94 48.32 70.63 51.38Q69.30 54.43 67.66 58.17Z"></path></svg>